<?xml version="1.0" encoding="UTF-8"?>
<!DOCTYPE svg PUBLIC "-//W3C//DTD SVG 1.1//EN" "http://www.w3.org/Graphics/SVG/1.1/DTD/svg11.dtd">
<svg xmlns="http://www.w3.org/2000/svg" version="1.1" width="512px" height="512px" style="shape-rendering:geometricPrecision; text-rendering:geometricPrecision; image-rendering:optimizeQuality; fill-rule:evenodd; clip-rule:evenodd" xmlns:xlink="http://www.w3.org/1999/xlink">
<g><path style="opacity:0.993" fill="#9aa3b3" d="M 79.5,41.5 C 196.834,41.3333 314.167,41.5 431.5,42C 452.667,45.8333 465.167,58.3333 469,79.5C 469.667,196.833 469.667,314.167 469,431.5C 465.167,452.667 452.667,465.167 431.5,469C 314.167,469.667 196.833,469.667 79.5,469C 58.3333,465.167 45.8333,452.667 42,431.5C 41.3333,314.167 41.3333,196.833 42,79.5C 46.0131,58.3209 58.5131,45.6542 79.5,41.5 Z"/></g>
<g><path style="opacity:1" fill="#495b7a" d="M 173.5,127.5 C 197.466,125.898 215.633,135.231 228,155.5C 240.191,183.907 234.024,207.407 209.5,226C 196.732,233.166 183.066,235.499 168.5,233C 142.851,224.74 129.184,207.074 127.5,180C 130.284,151.389 145.617,133.889 173.5,127.5 Z"/></g>
<g><path style="opacity:1" fill="#495b7a" d="M 425.5,297.5 C 425.5,340.167 425.5,382.833 425.5,425.5C 312.332,425.833 199.332,425.5 86.5,424.5C 128.812,382.854 170.812,340.854 212.5,298.5C 226.833,312.5 241.167,326.5 255.5,340.5C 291.167,305.167 326.833,269.833 362.5,234.5C 383.854,255.188 404.854,276.188 425.5,297.5 Z"/></g>
<g><path style="opacity:1" fill="#65748d" d="M 425.5,297.5 C 426.499,340.33 426.832,383.33 426.5,426.5C 312.831,426.833 199.165,426.5 85.5,425.5C 85.6236,424.893 85.9569,424.56 86.5,424.5C 199.332,425.5 312.332,425.833 425.5,425.5C 425.5,382.833 425.5,340.167 425.5,297.5 Z"/></g>
</svg>
