<svg width="20" height="20" viewBox="0 0 20 20" fill="none" xmlns="http://www.w3.org/2000/svg">
<path d="M16.1667 12.416C16.8333 13.666 17.5 14.166 17.5 14.166H2.5C2.5 14.166 5 12.4994 5 6.66602C5 3.91602 7.25 1.66602 10 1.66602C10.5833 1.66602 11.0833 1.74935 11.5833 1.91602M8.58337 17.4994C8.72286 17.7531 8.92791 17.9646 9.17712 18.112C9.42632 18.2594 9.71052 18.3371 10 18.3371C10.2896 18.3371 10.5738 18.2594 10.823 18.112C11.0722 17.9646 11.2772 17.7531 11.4167 17.4994M17.5 6.66602C17.5 8.04673 16.3807 9.16602 15 9.16602C13.6193 9.16602 12.5 8.04673 12.5 6.66602C12.5 5.2853 13.6193 4.16602 15 4.16602C16.3807 4.16602 17.5 5.2853 17.5 6.66602Z" stroke="#020617" stroke-linecap="round" stroke-linejoin="round"/>
</svg>
