<svg width="16" height="16" viewBox="0 0 16 16" fill="none" xmlns="http://www.w3.org/2000/svg">
    <path d="M6 2H2.66667C2.29848 2 2 2.29848 2 2.66667V7.33333C2 7.70152 2.29848 8 2.66667 8H6C6.36819 8 6.66667 7.70152 6.66667 7.33333V2.66667C6.66667 2.29848 6.36819 2 6 2Z" stroke="#F8FAFC" stroke-linecap="round" stroke-linejoin="round"/>
    <path d="M13.3333 2H10C9.63181 2 9.33333 2.29848 9.33333 2.66667V4.66667C9.33333 5.03486 9.63181 5.33333 10 5.33333H13.3333C13.7015 5.33333 14 5.03486 14 4.66667V2.66667C14 2.29848 13.7015 2 13.3333 2Z" stroke="#F8FAFC" stroke-linecap="round" stroke-linejoin="round"/>
    <path d="M13.3333 8H10C9.63181 8 9.33333 8.29848 9.33333 8.66667V13.3333C9.33333 13.7015 9.63181 14 10 14H13.3333C13.7015 14 14 13.7015 14 13.3333V8.66667C14 8.29848 13.7015 8 13.3333 8Z" stroke="#F8FAFC" stroke-linecap="round" stroke-linejoin="round"/>
    <path d="M6 10.6667H2.66667C2.29848 10.6667 2 10.9651 2 11.3333V13.3333C2 13.7015 2.29848 14 2.66667 14H6C6.36819 14 6.66667 13.7015 6.66667 13.3333V11.3333C6.66667 10.9651 6.36819 10.6667 6 10.6667Z" stroke="#F8FAFC" stroke-linecap="round" stroke-linejoin="round"/>
</svg>
