<svg width="22" height="22" viewBox="0 0 22 22" fill="none" xmlns="http://www.w3.org/2000/svg">
<path d="M11 15H11.01M11 7V11M14.312 1C14.8424 1.00011 15.351 1.2109 15.726 1.586L20.414 6.274C20.7891 6.64899 20.9999 7.15761 21 7.688V14.312C20.9999 14.8424 20.7891 15.351 20.414 15.726L15.726 20.414C15.351 20.7891 14.8424 20.9999 14.312 21H7.688C7.15761 20.9999 6.64899 20.7891 6.274 20.414L1.586 15.726C1.2109 15.351 1.00011 14.8424 1 14.312V7.688C1.00011 7.15761 1.2109 6.64899 1.586 6.274L6.274 1.586C6.64899 1.2109 7.15761 1.00011 7.688 1H14.312Z" stroke="#EAB308" stroke-width="1.3" stroke-linecap="round" stroke-linejoin="round"/>
</svg>
