<?xml version="1.0" encoding="UTF-8"?>
<!DOCTYPE svg PUBLIC "-//W3C//DTD SVG 1.1//EN" "http://www.w3.org/Graphics/SVG/1.1/DTD/svg11.dtd">
<svg xmlns="http://www.w3.org/2000/svg" version="1.1" width="512px" height="512px" style="shape-rendering:geometricPrecision; text-rendering:geometricPrecision; image-rendering:optimizeQuality; fill-rule:evenodd; clip-rule:evenodd" xmlns:xlink="http://www.w3.org/1999/xlink">
<g><path style="opacity:0.98" fill="#000000" d="M 511.5,164.5 C 511.5,172.5 511.5,180.5 511.5,188.5C 510.18,193.423 508.68,198.423 507,203.5C 506.477,205.223 505.477,206.556 504,207.5C 466.444,185.479 426.611,168.812 384.5,157.5C 385.085,153.409 386.085,149.409 387.5,145.5C 326.895,128.389 265.229,123.222 202.5,130C 175.621,132.59 149.288,137.756 123.5,145.5C 124.915,149.409 125.915,153.409 126.5,157.5C 84.3894,168.812 44.556,185.479 7,207.5C 5.5232,206.556 4.5232,205.223 4,203.5C 2.35832,198.746 0.858315,194.079 -0.5,189.5C -0.5,181.167 -0.5,172.833 -0.5,164.5C 5.4897,136.666 21.823,117.499 48.5,107C 184.577,55.0998 320.911,54.4332 457.5,105C 486.613,114.938 504.613,134.772 511.5,164.5 Z"/></g>
<g><path style="opacity:0.978" fill="#000000" d="M 201.5,139.5 C 203.766,139.141 205.599,139.808 207,141.5C 209.844,153.209 212.844,164.876 216,176.5C 217.902,181.4 221.402,184.567 226.5,186C 245.833,186.667 265.167,186.667 284.5,186C 289.185,184.65 292.685,181.817 295,177.5C 298.797,164.977 301.964,152.31 304.5,139.5C 319.232,141.033 333.899,143.033 348.5,145.5C 348.333,157.505 348.5,169.505 349,181.5C 350.002,185.164 351.836,188.331 354.5,191C 405.263,224.273 437.43,270.773 451,330.5C 453.155,338.453 454.989,346.453 456.5,354.5C 322.5,354.5 188.5,354.5 54.5,354.5C 61.2418,319.435 73.4084,286.435 91,255.5C 108.544,229.623 130.377,208.123 156.5,191C 158.359,189.442 159.859,187.609 161,185.5C 162.444,172.24 162.944,158.907 162.5,145.5C 175.631,143.483 188.631,141.483 201.5,139.5 Z M 247.5,200.5 C 281.693,198.999 305.859,213.666 320,244.5C 331.256,281.41 320.756,310.243 288.5,331C 251.772,346.992 221.272,339.159 197,307.5C 178.798,273.237 183.631,242.737 211.5,216C 222.294,207.799 234.294,202.632 247.5,200.5 Z"/></g>
<g><path style="opacity:0.954" fill="#000000" d="M 127.5,166.5 C 128.75,166.577 129.583,167.244 130,168.5C 133.083,176.245 134.083,184.245 133,192.5C 130.886,196.948 127.719,200.448 123.5,203C 94.796,212.185 67.1294,223.851 40.5,238C 34.0781,239.301 28.0781,238.301 22.5,235C 18.6288,230.093 15.1288,224.926 12,219.5C 11.2195,218.056 11.3861,216.723 12.5,215.5C 48.9145,194.454 87.2478,178.121 127.5,166.5 Z"/></g>
<g><path style="opacity:0.954" fill="#000000" d="M 381.5,166.5 C 422.703,177.602 461.703,193.935 498.5,215.5C 499.614,216.723 499.781,218.056 499,219.5C 495.871,224.926 492.371,230.093 488.5,235C 482.922,238.301 476.922,239.301 470.5,238C 443.974,223.603 416.308,211.937 387.5,203C 378.41,197.643 375.243,189.809 378,179.5C 379.275,175.178 380.442,170.844 381.5,166.5 Z"/></g>
<g><path style="opacity:0.915" fill="#000000" d="M 250.5,208.5 C 263.489,206.991 269.323,212.657 268,225.5C 264.78,232.694 259.28,235.527 251.5,234C 243.715,230.672 240.882,224.839 243,216.5C 244.69,212.979 247.19,210.312 250.5,208.5 Z"/></g>
<g><path style="opacity:0.91" fill="#000000" d="M 216.5,222.5 C 230.49,221.649 235.99,227.982 233,241.5C 227.58,248.926 220.746,250.426 212.5,246C 207.006,239.87 206.506,233.37 211,226.5C 212.812,225.023 214.645,223.69 216.5,222.5 Z"/></g>
<g><path style="opacity:0.911" fill="#000000" d="M 285.5,222.5 C 299.397,221.651 304.897,227.984 302,241.5C 296.58,248.926 289.746,250.426 281.5,246C 274.038,236.603 275.371,228.77 285.5,222.5 Z"/></g>
<g><path style="opacity:0.947" fill="#000000" d="M 250.5,248.5 C 266.403,247.107 275.403,254.274 277.5,270C 274.472,287.018 264.472,293.684 247.5,290C 234.386,282.657 230.886,272.157 237,258.5C 240.416,253.558 244.916,250.224 250.5,248.5 Z"/></g>
<g><path style="opacity:0.915" fill="#000000" d="M 203.5,256.5 C 217.717,257.197 222.55,264.197 218,277.5C 210.667,285.5 203.333,285.5 196,277.5C 191.727,268.052 194.227,261.052 203.5,256.5 Z"/></g>
<g><path style="opacity:0.913" fill="#000000" d="M 300.5,256.5 C 314.718,257.198 319.552,264.198 315,277.5C 307.667,285.5 300.333,285.5 293,277.5C 288.851,268.114 291.351,261.114 300.5,256.5 Z"/></g>
<g><path style="opacity:0.912" fill="#000000" d="M 215.5,291.5 C 229.956,290.117 235.79,296.451 233,310.5C 228.36,317.155 222.194,318.989 214.5,316C 205.508,307.457 205.842,299.29 215.5,291.5 Z"/></g>
<g><path style="opacity:0.907" fill="#000000" d="M 284.5,291.5 C 298.449,289.946 304.283,295.946 302,309.5C 296.976,317.749 290.143,319.582 281.5,315C 274.134,306.062 275.134,298.229 284.5,291.5 Z"/></g>
<g><path style="opacity:0.92" fill="#000000" d="M 251.5,305.5 C 263.65,304.816 269.15,310.483 268,322.5C 265.034,330.055 259.534,332.888 251.5,331C 242.937,326.995 240.437,320.495 244,311.5C 246.134,308.847 248.634,306.847 251.5,305.5 Z"/></g>
<g><path style="opacity:0.987" fill="#000000" d="M 44.5,364.5 C 185.167,364.333 325.834,364.5 466.5,365C 469.333,366.5 471.5,368.667 473,371.5C 473.667,392.833 473.667,414.167 473,435.5C 471.833,439.333 469.333,441.833 465.5,443C 325.5,443.667 185.5,443.667 45.5,443C 41.6667,441.833 39.1667,439.333 38,435.5C 37.3333,414.167 37.3333,392.833 38,371.5C 39.6941,368.642 41.8607,366.309 44.5,364.5 Z"/></g>
</svg>
