<?xml version="1.0" encoding="UTF-8"?>
<!DOCTYPE svg PUBLIC "-//W3C//DTD SVG 1.1//EN" "http://www.w3.org/Graphics/SVG/1.1/DTD/svg11.dtd">
<svg xmlns="http://www.w3.org/2000/svg" version="1.1" width="295px" height="300px" style="shape-rendering:geometricPrecision; text-rendering:geometricPrecision; image-rendering:optimizeQuality; fill-rule:evenodd; clip-rule:evenodd" xmlns:xlink="http://www.w3.org/1999/xlink">
<g><path style="opacity:1" fill="#10bb3b" d="M 131.5,-0.5 C 143.833,-0.5 156.167,-0.5 168.5,-0.5C 240.195,13.528 282.195,56.528 294.5,128.5C 294.5,138.5 294.5,148.5 294.5,158.5C 286.452,212.766 257.785,251.933 208.5,276C 166.981,293.225 125.815,292.392 85,273.5C 57.5793,281.697 30.4127,290.364 3.5,299.5C 2.16667,299.5 0.833333,299.5 -0.5,299.5C -0.5,298.5 -0.5,297.5 -0.5,296.5C 8.19798,269.902 16.5313,243.068 24.5,216C 7.62194,185.904 1.78861,153.737 7,119.5C 22.2354,52.0956 63.7354,12.0956 131.5,-0.5 Z"/></g>
<g><path style="opacity:1" fill="#fcfefc" d="M 140.5,10.5 C 204.73,10.1787 249.897,39.1787 276,97.5C 294.419,155.217 281.919,205.051 238.5,247C 201.271,276.983 159.271,286.316 112.5,275C 102.675,271.833 93.1749,267.999 84,263.5C 59.9044,270.882 35.9044,278.549 12,286.5C 18.6691,262.488 26.1691,238.655 34.5,215C 16.5667,183.966 11.0667,150.799 18,115.5C 32.4962,62.3372 66.3295,28.5038 119.5,14C 126.664,12.9561 133.664,11.7895 140.5,10.5 Z"/></g>
<g><path style="opacity:1" fill="#0bba39" d="M 134.5,33.5 C 189.012,30.4933 228.512,53.1599 253,101.5C 267.799,140.775 263.465,177.775 240,212.5C 205.109,254.102 161.609,266.935 109.5,251C 101.518,247.676 93.8515,243.842 86.5,239.5C 73.2562,244.144 59.9228,248.477 46.5,252.5C 46.1667,252 45.8333,251.5 45.5,251C 49.6359,238.259 53.9692,225.592 58.5,213C 35.9096,178.777 31.4096,142.277 45,103.5C 62.7224,64.6036 92.5558,41.2702 134.5,33.5 Z"/></g>
<g><path style="opacity:1" fill="#fcfefc" d="M 109.5,85.5 C 129.836,85.3334 150.169,85.5 170.5,86C 184.347,88.8435 193.513,97.0102 198,110.5C 201.25,123.659 199.417,135.993 192.5,147.5C 201.625,156.717 204.792,167.717 202,180.5C 199.316,196.049 190.483,206.215 175.5,211C 153.5,211.667 131.5,211.667 109.5,211C 108.333,209.833 107.167,208.667 106,207.5C 104.351,168.56 104.018,129.56 105,90.5C 106.025,88.313 107.525,86.6464 109.5,85.5 Z"/></g>
<g><path style="opacity:1" fill="#16bb3d" d="M 129.5,109.5 C 142.171,109.333 154.838,109.5 167.5,110C 175.932,115.312 177.765,122.478 173,131.5C 171.363,133.81 169.196,135.31 166.5,136C 154.171,136.5 141.838,136.667 129.5,136.5C 129.5,127.5 129.5,118.5 129.5,109.5 Z"/></g>
<g><path style="opacity:1" fill="#09ba39" d="M 129.5,161.5 C 143.171,161.333 156.837,161.5 170.5,162C 175.755,164.263 178.089,168.263 177.5,174C 178.309,180.049 175.976,184.383 170.5,187C 156.837,187.5 143.171,187.667 129.5,187.5C 129.5,178.833 129.5,170.167 129.5,161.5 Z"/></g>
</svg>
