<?xml version="1.0" encoding="UTF-8"?><!DOCTYPE svg PUBLIC "-//W3C//DTD SVG 1.1//EN"
    "http://www.w3.org/Graphics/SVG/1.1/DTD/svg11.dtd">
<svg xmlns="http://www.w3.org/2000/svg" version="1.1" width="258px" height="258px"
    style="shape-rendering:geometricPrecision; text-rendering:geometricPrecision; image-rendering:optimizeQuality; fill-rule:evenodd; clip-rule:evenodd">
    <g>
        <path style="opacity:0.955" fill="#e06565"
            d="M 122.5,64.5 C 141.193,62.6266 157.693,67.6266 172,79.5C 173.83,85.1751 171.997,88.8417 166.5,90.5C 161.711,88.2716 157.045,85.7716 152.5,83C 137.948,76.7465 123.615,77.0798 109.5,84C 98.0503,93.4748 96.7169,104.142 105.5,116C 109.804,118.771 114.471,120.771 119.5,122C 132.032,124.216 144.366,127.216 156.5,131C 171.96,137.419 178.46,148.919 176,165.5C 173.135,178.034 165.635,186.534 153.5,191C 133.186,197.064 113.186,196.064 93.5,188C 89.0435,186.021 85.2102,183.187 82,179.5C 80.1701,173.825 82.0034,170.158 87.5,168.5C 92.2888,170.728 96.9555,173.228 101.5,176C 115.896,181.374 130.563,182.374 145.5,179C 159.106,173.623 163.272,164.123 158,150.5C 153.874,146.518 149.041,143.685 143.5,142C 130.678,139.628 118.011,136.628 105.5,133C 87.4025,125.306 80.5692,111.806 85,92.5C 87.4827,83.6781 92.6494,76.8447 100.5,72C 107.578,68.3637 114.911,65.8637 122.5,64.5 Z" />
    </g>
    <g>
        <path style="opacity:0.95" fill="#656565"
            d="M 47.5,66.5 C 55.1739,66.3336 62.8406,66.5003 70.5,67C 74.5,70.6667 74.5,74.3333 70.5,78C 65.5,78.3333 60.5,78.6667 55.5,79C 54.0692,79.4652 52.9025,80.2986 52,81.5C 50.7072,99.1009 50.0406,116.768 50,134.5C 48.2306,139.935 44.7306,143.768 39.5,146C 44.7306,148.232 48.2306,152.065 50,157.5C 50.0406,175.232 50.7072,192.899 52,210.5C 52.9025,211.701 54.0692,212.535 55.5,213C 60.5,213.333 65.5,213.667 70.5,214C 74.7045,218.155 74.3712,221.822 69.5,225C 62.1667,225.667 54.8333,225.667 47.5,225C 41.6667,223.167 37.8333,219.333 36,213.5C 35.6667,196.167 35.3333,178.833 35,161.5C 34.3936,158.452 32.8936,155.952 30.5,154C 26.4604,153.091 22.4604,152.091 18.5,151C 15.8333,147.667 15.8333,144.333 18.5,141C 22.123,139.895 25.7897,138.895 29.5,138C 31.6667,137.167 33.1667,135.667 34,133.5C 35.2805,115.219 35.9472,96.8853 36,78.5C 38.0188,72.6498 41.8522,68.6498 47.5,66.5 Z" />
    </g>
    <g>
        <path style="opacity:0.949" fill="#656565"
            d="M 185.5,66.5 C 193.174,66.3336 200.841,66.5003 208.5,67C 214.333,68.8333 218.167,72.6667 220,78.5C 220.053,96.8853 220.719,115.219 222,133.5C 225.458,138.475 230.291,140.642 236.5,140C 239.981,143.397 240.314,147.064 237.5,151C 233.54,152.091 229.54,153.091 225.5,154C 223.951,155.214 222.785,156.714 222,158.5C 220.706,176.768 220.039,195.101 220,213.5C 218.167,219.333 214.333,223.167 208.5,225C 201.167,225.667 193.833,225.667 186.5,225C 181.629,221.822 181.296,218.155 185.5,214C 190.5,213.667 195.5,213.333 200.5,213C 201.931,212.535 203.097,211.701 204,210.5C 205.293,192.899 205.959,175.232 206,157.5C 207.769,152.065 211.269,148.232 216.5,146C 210.836,143.668 207.336,139.501 206,133.5C 205.959,116.101 205.292,98.7674 204,81.5C 203.097,80.2986 201.931,79.4652 200.5,79C 195.5,78.6667 190.5,78.3333 185.5,78C 181.581,74.1727 181.581,70.3393 185.5,66.5 Z" />
    </g>
</svg>
